<svg width="175" height="152" viewBox="0 0 175 152" fill="none" xmlns="http://www.w3.org/2000/svg">
<path d="M170.765 26.0796H35.1294C32.7905 26.0796 30.8945 27.9757 30.8945 30.3145V117.915C30.8945 120.254 32.7905 122.15 35.1294 122.15H170.765C173.104 122.15 175 120.254 175 117.915V30.3145C175 27.9757 173.104 26.0796 170.765 26.0796Z" fill="#F5F5F5"/>
<path d="M168.027 28.4243H37.4779C35.139 28.4243 33.243 30.3203 33.243 32.6592V115.303C33.243 117.642 35.139 119.538 37.4779 119.538H168.027C170.366 119.538 172.262 117.642 172.262 115.303V32.6592C172.262 30.3203 170.366 28.4243 168.027 28.4243Z" fill="#E0E0E0"/>
<path d="M168.986 56.4725H35.3356V106.807H168.986V56.4725Z" fill="white"/>
<path d="M145.207 55.3231H9.57092C7.23204 55.3231 5.336 57.2191 5.336 59.558V147.159C5.336 149.497 7.23204 151.393 9.57092 151.393H145.207C147.546 151.393 149.442 149.497 149.442 147.159V59.558C149.442 57.2191 147.546 55.3231 145.207 55.3231Z" fill="#F5F5F5"/>
<path d="M142.469 57.6716H11.9195C9.58058 57.6716 7.68454 59.5676 7.68454 61.9065V144.55C7.68454 146.889 9.58058 148.785 11.9195 148.785H142.469C144.808 148.785 146.704 146.889 146.704 144.55V61.9065C146.704 59.5676 144.808 57.6716 142.469 57.6716Z" fill="#E0E0E0"/>
<path d="M143.427 85.716H9.77719V136.05H143.427V85.716Z" fill="white"/>
<path d="M130.066 43.7219C130.066 43.7219 130.188 43.7563 130.417 43.8327C130.646 43.909 130.986 44.016 131.444 44.1305C132.778 44.4606 134.159 44.5588 135.526 44.4207C136.511 44.3228 137.485 44.1349 138.436 43.8594C139.573 43.5463 140.676 43.1243 141.732 42.5992C144.3 41.2939 146.561 39.4572 148.365 37.2111C148.891 36.5935 149.29 35.8786 149.541 35.107C149.801 34.3018 149.734 33.4266 149.354 32.6707C149.13 32.2982 148.818 31.9859 148.446 31.761C148.074 31.5361 147.653 31.4053 147.219 31.3799C146.306 31.2983 145.389 31.4756 144.573 31.8916C144.141 32.0972 143.694 32.2707 143.236 32.411C142.756 32.5524 142.246 32.5524 141.766 32.411C141.513 32.3474 141.281 32.2219 141.089 32.046C140.897 31.87 140.752 31.649 140.666 31.4029C140.599 31.1498 140.587 30.8853 140.63 30.6271C140.674 30.369 140.772 30.1231 140.918 29.9059C141.198 29.4683 141.595 29.1178 142.064 28.894C142.529 28.6716 143.009 28.4815 143.5 28.325C144.48 27.9772 145.432 27.552 146.345 27.0534C147.283 26.5427 148.177 25.9551 149.018 25.2968C149.452 24.9794 149.845 24.6086 150.186 24.1932C150.537 23.7913 150.737 23.2794 150.751 22.7459C150.731 22.4833 150.644 22.2304 150.497 22.0116C150.351 21.7928 150.15 21.6156 149.915 21.4972C149.424 21.2521 148.883 21.1216 148.334 21.1153C147.761 21.1079 147.19 21.0478 146.627 20.9359C146.329 20.8754 146.05 20.7448 145.813 20.5548C145.576 20.3649 145.388 20.1211 145.264 19.8437C145.207 19.6945 145.186 19.5342 145.201 19.3752C145.216 19.2163 145.268 19.063 145.352 18.9272C145.527 18.6787 145.75 18.4682 146.009 18.3086C146.482 17.9802 146.947 17.6327 147.402 17.2661C148.315 16.5262 149.169 15.7167 149.957 14.8451C150.786 13.9938 151.476 13.0185 152.004 11.9543C152.25 11.4166 152.356 10.8256 152.313 10.2359C152.262 9.64526 152.01 9.08998 151.599 8.66261C151.185 8.23853 150.67 7.92772 150.101 7.7599C149.533 7.59209 148.931 7.57288 148.353 7.70412C147.203 7.9903 146.171 8.62844 145.401 9.52945C143.817 11.2975 143.08 13.5925 141.789 15.5171C141.472 16.0021 141.112 16.4571 140.712 16.8766C140.517 17.0968 140.29 17.2872 140.04 17.4418C139.908 17.53 139.756 17.5821 139.598 17.5928C139.439 17.6035 139.281 17.5725 139.139 17.5029C139.007 17.4173 138.895 17.3051 138.81 17.1736C138.724 17.0421 138.667 16.894 138.642 16.7391C138.591 16.4544 138.58 16.164 138.608 15.8761C138.637 15.609 138.619 15.3388 138.555 15.078C138.481 14.8255 138.341 14.5973 138.15 14.4174C137.955 14.2399 137.728 14.1027 137.48 14.0136C137.232 13.9244 136.969 13.8852 136.706 13.898C136.18 13.9452 135.687 14.1749 135.312 14.5472C134.941 14.9154 134.655 15.3614 134.476 15.8532C134.294 16.3443 134.181 16.8584 134.14 17.3807C134.048 18.4232 134.09 19.4733 134.075 20.5005C134.06 21.5277 134.075 22.5511 134.075 23.5555C134.075 24.5598 134.159 25.5641 133.827 26.5226C133.75 26.7651 133.621 26.9878 133.449 27.1751C133.277 27.3625 133.065 27.5099 132.83 27.6071C132.357 27.7601 131.844 27.7412 131.383 27.5536C130.504 27.2105 129.724 26.6557 129.111 25.9383C128.815 25.594 128.559 25.2174 128.347 24.8156C128.154 24.4219 127.938 24.0395 127.702 23.67C127.48 23.3128 127.141 23.0431 126.743 22.9063C126.347 22.8015 125.927 22.8435 125.56 23.0247C125.195 23.1994 124.881 23.4618 124.643 23.7884C124.415 24.1126 124.262 24.4828 124.192 24.8729C124.094 25.6441 124.048 26.4211 124.055 27.1985C124.024 27.9622 124.021 28.6954 124.032 29.4171C124.055 30.7709 124.177 32.1211 124.395 33.4573C124.576 34.6259 124.861 35.776 125.246 36.8941C125.407 37.4135 125.628 37.8832 125.815 38.3452C126.003 38.8073 126.228 39.2197 126.457 39.6016C127.131 40.7976 127.989 41.88 129 42.8093C129.148 42.9539 129.305 43.0891 129.47 43.214L129.821 43.4966L130.1 43.7296C130.1 43.7296 130.001 43.6608 129.81 43.5119L129.451 43.2369C129.284 43.12 129.124 42.9925 128.973 42.8551C127.948 41.9327 127.077 40.8524 126.392 39.655C126.159 39.2732 125.961 38.8416 125.735 38.3949C125.51 37.9481 125.319 37.4631 125.159 36.9399C124.766 35.8228 124.474 34.6726 124.288 33.5031C124.061 32.1613 123.933 30.8045 123.906 29.4439C123.906 28.7221 123.906 27.9813 123.906 27.2176C123.897 26.4339 123.941 25.6505 124.04 24.8729C124.113 24.4619 124.273 24.0713 124.509 23.7273C124.762 23.3807 125.096 23.1024 125.483 22.9177C125.882 22.7205 126.34 22.6744 126.77 22.7879C127.2 22.9323 127.568 23.2192 127.813 23.6013C128.052 23.9712 128.271 24.3536 128.469 24.7469C128.682 25.1387 128.938 25.5051 129.233 25.839C129.829 26.5323 130.586 27.0697 131.437 27.4047C131.863 27.575 132.335 27.5925 132.773 27.4543C132.985 27.3653 133.175 27.231 133.329 27.0608C133.483 26.8906 133.599 26.6886 133.667 26.4691C133.98 25.5679 133.877 24.5598 133.9 23.5593C133.922 22.5588 133.9 21.5392 133.9 20.5043C133.9 19.4695 133.869 18.4308 133.961 17.3654C134.003 16.8249 134.12 16.2928 134.308 15.7844C134.503 15.266 134.81 14.7976 135.209 14.4135C135.621 14.0085 136.161 13.7612 136.737 13.7147C137.311 13.693 137.87 13.8973 138.295 14.2837C138.516 14.4906 138.675 14.7551 138.753 15.0474C138.822 15.3282 138.843 15.6189 138.814 15.9066C138.788 16.1779 138.798 16.4515 138.845 16.72C138.866 16.8461 138.912 16.9667 138.981 17.0743C139.05 17.182 139.14 17.2745 139.246 17.3463C139.36 17.3992 139.486 17.4214 139.611 17.4106C139.736 17.3999 139.856 17.3567 139.96 17.2852C140.194 17.1327 140.405 16.9475 140.586 16.7353C140.977 16.3236 141.329 15.8775 141.64 15.4026C142.912 13.4932 143.645 11.202 145.264 9.38816C146.061 8.45704 147.129 7.79765 148.319 7.50173C148.931 7.36248 149.569 7.38313 150.171 7.5617C150.773 7.74026 151.318 8.07074 151.756 8.52132C152.196 8.98024 152.465 9.57586 152.519 10.2092C152.565 10.8314 152.453 11.4551 152.195 12.023C151.66 13.1098 150.956 14.1048 150.11 14.9711C149.313 15.8482 148.452 16.6639 147.532 17.4112C147.078 17.7931 146.604 18.1291 146.127 18.4613C145.891 18.6074 145.686 18.7981 145.524 19.0227C145.452 19.1354 145.409 19.2635 145.397 19.3963C145.385 19.5291 145.405 19.6628 145.455 19.7864C145.572 20.0321 145.745 20.2467 145.961 20.4126C146.177 20.5785 146.428 20.6911 146.696 20.7411C147.247 20.85 147.807 20.9088 148.369 20.9168C148.948 20.9286 149.518 21.0722 150.033 21.3368C150.293 21.4761 150.516 21.6735 150.686 21.9134C150.853 22.1591 150.948 22.4458 150.961 22.7421C150.952 23.3208 150.737 23.8771 150.354 24.3116C150.006 24.7429 149.605 25.1279 149.159 25.4572C148.31 26.1183 147.408 26.7095 146.463 27.2252C145.542 27.728 144.581 28.1558 143.591 28.5045C143.107 28.6575 142.633 28.8438 142.175 29.062C141.729 29.2687 141.35 29.5969 141.082 30.009C140.949 30.2053 140.859 30.4276 140.818 30.6614C140.777 30.8951 140.787 31.1348 140.846 31.3647C140.923 31.5841 141.053 31.781 141.225 31.9376C141.397 32.0942 141.605 32.2057 141.831 32.2621C142.281 32.3937 142.759 32.3937 143.21 32.2621C143.66 32.1267 144.099 31.9569 144.523 31.7542C145.367 31.3311 146.313 31.1513 147.253 31.2348C147.713 31.2794 148.159 31.4213 148.559 31.6511C148.955 31.8809 149.281 32.2134 149.503 32.6134C149.901 33.4047 149.971 34.3215 149.697 35.1643C149.44 35.9532 149.03 36.6837 148.491 37.3142C146.669 39.5699 144.387 41.4108 141.797 42.7138C140.733 43.2374 139.622 43.6568 138.478 43.9663C137.52 44.2393 136.538 44.4221 135.545 44.5124C134.171 44.6418 132.784 44.5307 131.448 44.184C131.101 44.0973 130.76 43.9915 130.425 43.867C130.18 43.7716 130.066 43.7219 130.066 43.7219Z" fill="#BFDFEF"/>
<path d="M150.896 8.38383C150.896 8.38383 150.866 8.42202 150.797 8.48312C150.728 8.54422 150.618 8.63587 150.492 8.75043C150.221 8.98337 149.823 9.32705 149.323 9.78529C147.908 11.0759 146.592 12.4711 145.386 13.9591C144.622 14.8985 143.817 15.9601 142.98 17.1172C142.144 18.2742 141.262 19.5229 140.38 20.8671C139.447 22.2647 138.593 23.7129 137.821 25.2051C137.42 25.9689 137.058 26.7937 136.695 27.6224C136.332 28.451 135.962 29.2949 135.587 30.1465C134.164 33.3369 132.919 36.6044 131.86 39.9338C131.006 42.658 130.41 45.4568 130.081 48.2929C129.864 50.207 129.815 52.1363 129.932 54.0591C129.978 54.7388 130.024 55.2658 130.069 55.6247C130.088 55.7928 130.1 55.9302 130.111 56.0295C130.114 56.0766 130.114 56.1238 130.111 56.1708C130.096 56.1264 130.085 56.0802 130.081 56.0333C130.081 55.9341 130.046 55.7966 130.02 55.6286C129.962 55.2734 129.905 54.7464 129.844 54.0629C129.7 52.1369 129.731 50.2019 129.936 48.2814C130.248 45.4315 130.834 42.6181 131.685 39.8803C132.735 36.5402 133.977 33.2634 135.404 30.0663L136.511 27.5422C136.893 26.7173 137.241 25.8963 137.657 25.1173C138.436 23.6201 139.296 22.1668 140.235 20.764C141.124 19.4198 142.014 18.1788 142.854 17.0217C143.694 15.8646 144.508 14.803 145.283 13.8675C146.502 12.3838 147.838 10.9996 149.277 9.72801C149.785 9.27741 150.19 8.94136 150.465 8.71606L150.786 8.46403L150.896 8.38383Z" fill="#BFDFEF"/>
<path d="M137.707 25.1135C137.66 24.9708 137.628 24.8236 137.611 24.6744C137.562 24.3918 137.501 23.9832 137.432 23.4715C137.298 22.4557 137.161 21.0428 137.012 19.4886C136.863 17.9344 136.71 16.5215 136.557 15.5095C136.485 15.0055 136.42 14.593 136.374 14.3105C136.341 14.165 136.323 14.0166 136.321 13.8675C136.378 14.0063 136.421 14.151 136.447 14.299C136.515 14.5739 136.599 14.9825 136.691 15.4904C136.874 16.4986 137.054 17.9077 137.199 19.4695C137.344 21.0313 137.466 22.3946 137.581 23.4562C137.627 23.9374 137.669 24.3421 137.699 24.6667C137.717 24.815 137.719 24.9647 137.707 25.1135Z" fill="#BFDFEF"/>
<path d="M150.855 22.7803C150.683 22.8183 150.507 22.8388 150.331 22.8414C149.991 22.8681 149.507 22.9025 148.903 22.9674C147.7 23.0858 146.043 23.3072 144.229 23.6318C142.415 23.9564 140.792 24.3268 139.608 24.6285C139.02 24.7736 138.547 24.9035 138.218 24.9913C138.052 25.0482 137.881 25.0891 137.707 25.1135C137.864 25.0324 138.029 24.9672 138.199 24.9187C138.52 24.8118 138.99 24.6591 139.574 24.4987C140.72 24.1626 142.373 23.7731 144.195 23.4447C145.749 23.1612 147.317 22.9572 148.892 22.8337C149.495 22.7879 149.988 22.7688 150.328 22.765C150.503 22.7562 150.68 22.7613 150.855 22.7803Z" fill="#BFDFEF"/>
<path d="M131.853 39.6435C131.818 39.5933 131.789 39.5395 131.765 39.4832C131.708 39.3533 131.635 39.1968 131.547 39.0058C131.356 38.5896 131.097 37.9824 130.784 37.2263C130.161 35.7179 129.374 33.6062 128.534 31.2654C127.694 28.9245 126.923 26.8051 126.339 25.2853L125.636 23.4867C125.56 23.292 125.498 23.1277 125.449 22.9941C125.421 22.9391 125.403 22.8796 125.395 22.8184C125.431 22.8694 125.461 22.9245 125.483 22.9826C125.544 23.1087 125.617 23.2652 125.705 23.4562C125.892 23.8724 126.151 24.4796 126.468 25.2357C127.087 26.7631 127.878 28.8558 128.718 31.2004C129.558 33.5451 130.325 35.6568 130.913 37.1767L131.612 38.9867L131.799 39.4793C131.826 39.5308 131.844 39.5863 131.853 39.6435Z" fill="#BFDFEF"/>
<path d="M149.346 34.1867L149.174 34.2554L148.663 34.4196L146.791 35.0077C145.21 35.5041 143.034 36.2144 140.628 37.0048C138.222 37.7953 136.046 38.4865 134.446 38.9486C133.651 39.1815 133.006 39.3648 132.555 39.4794L132.04 39.6092C131.98 39.631 131.917 39.6426 131.853 39.6436C131.908 39.6128 131.967 39.5897 132.028 39.5748L132.536 39.4068L134.407 38.8187C135.992 38.3223 138.169 37.612 140.571 36.8254C142.973 36.0387 145.153 35.3437 146.753 34.8778C147.548 34.6449 148.197 34.4654 148.663 34.3471L149.182 34.2172C149.235 34.1995 149.29 34.1892 149.346 34.1867Z" fill="#BFDFEF"/>
<path d="M120.821 20.4241C121.396 20.471 121.955 20.6331 122.466 20.9008C122.977 21.1684 123.429 21.5362 123.795 21.9822C124.524 22.8795 125.036 23.9327 125.292 25.06C125.85 27.2176 125.475 29.7532 124.842 31.8878C122.52 31.0363 121.107 28.5388 120.465 27.229C119.457 25.1555 118.892 20.7984 120.821 20.4241Z" fill="#194E7E"/>
<path d="M128.172 34.5227C127.827 33.9776 127.632 33.3512 127.608 32.7068C127.583 32.0624 127.729 31.4229 128.03 30.8529C128.343 30.2892 128.765 29.7933 129.271 29.394C129.777 28.9948 130.357 28.7002 130.978 28.5274C131.254 28.4171 131.551 28.3684 131.848 28.3849C132.145 28.4014 132.435 28.4826 132.697 28.6228C132.918 28.7931 133.09 29.0197 133.194 29.279C133.298 29.5382 133.331 29.8207 133.289 30.0968C133.197 30.6475 132.961 31.1641 132.605 31.5938C131.459 33.1212 130.073 34.3814 128.172 34.5227Z" fill="#194E7E"/>
<path d="M128.366 41.7133C128.318 41.5678 128.284 41.4183 128.263 41.2665C128.206 40.9457 128.13 40.5333 128.038 40.0369C127.743 38.6856 127.668 37.2955 127.816 35.9204C127.986 34.5307 128.525 33.2119 129.378 32.1017C129.638 31.7712 129.936 31.4737 130.268 31.2157C130.357 31.1447 130.451 31.0785 130.547 31.0172C130.581 30.9952 130.618 30.9785 130.658 30.9675C130.224 31.3309 129.827 31.7364 129.474 32.1781C128.669 33.2837 128.156 34.575 127.984 35.9318C127.839 37.2923 127.897 38.6667 128.156 40.0102C128.237 40.5295 128.298 40.9534 128.336 41.2436C128.36 41.3989 128.371 41.5561 128.366 41.7133Z" fill="#BFDFEF"/>
<path d="M121.546 23.712C121.582 23.7676 121.613 23.8264 121.638 23.8877C121.699 24.0213 121.775 24.1932 121.874 24.407C122.073 24.8615 122.359 25.5221 122.703 26.3393C123.391 27.9737 124.307 30.2458 125.265 32.7776C126.224 35.3094 127.037 37.6235 127.603 39.3037C127.885 40.1438 128.11 40.8312 128.259 41.3009L128.424 41.847C128.447 41.91 128.463 41.9753 128.473 42.0417C128.442 41.9825 128.415 41.9213 128.393 41.8584C128.343 41.7171 128.278 41.5415 128.198 41.32C128.026 40.835 127.786 40.1744 127.496 39.3419C126.9 37.6693 126.071 35.3666 125.113 32.8501C124.154 30.3336 123.257 28.0424 122.596 26.3966C122.272 25.587 122.008 24.9264 121.813 24.449L121.607 23.9144C121.578 23.8501 121.557 23.782 121.546 23.712Z" fill="#BFDFEF"/>
<path d="M125.644 36.9361C124.955 35.7617 123.997 34.7681 122.848 34.0377C121.699 33.3072 120.393 32.8609 119.037 32.7355C118.346 32.6783 117.51 32.789 117.208 33.4038C116.906 34.0186 117.3 34.7556 117.762 35.2712C118.751 36.323 120.03 37.0584 121.437 37.3846C122.843 37.7108 124.315 37.6132 125.666 37.1041" fill="#194E7E"/>
<path d="M120.068 34.6029C120.212 34.5885 120.356 34.5885 120.5 34.6029C120.668 34.6147 120.835 34.6364 121 34.6678C121.195 34.706 121.42 34.7289 121.661 34.7977C121.925 34.8582 122.186 34.9322 122.443 35.0191C122.74 35.1177 123.03 35.2324 123.314 35.3628C124.628 35.9513 125.776 36.8535 126.659 37.9901C126.851 38.2341 127.028 38.4891 127.19 38.7538C127.33 38.9849 127.457 39.2233 127.572 39.4679C127.672 39.668 127.761 39.8733 127.839 40.0827C127.906 40.2378 127.962 40.3973 128.007 40.56C128.058 40.6958 128.094 40.8367 128.114 40.9801C128.08 40.9801 127.919 40.3958 127.469 39.5176C127.346 39.2802 127.211 39.0495 127.064 38.8264C126.9 38.5621 126.722 38.3071 126.529 38.0626C126.088 37.5144 125.587 37.0163 125.036 36.5772C124.479 36.148 123.877 35.7793 123.242 35.4774C122.963 35.3453 122.678 35.2293 122.386 35.1299C122.136 35.035 121.881 34.9547 121.622 34.8893C120.679 34.6755 120.064 34.6373 120.068 34.6029Z" fill="#BFDFEF"/>
<path d="M159.97 39.8269H24.3339C21.995 39.8269 20.099 41.7229 20.099 44.0618V131.662C20.099 134.001 21.995 135.897 24.3339 135.897H159.97C162.309 135.897 164.205 134.001 164.205 131.662V44.0618C164.205 41.7229 162.309 39.8269 159.97 39.8269Z" fill="#F5F5F5"/>
<path d="M157.232 42.1754H26.6824C24.3435 42.1754 22.4475 44.0714 22.4475 46.4103V129.054C22.4475 131.393 24.3435 133.289 26.6824 133.289H157.232C159.571 133.289 161.467 131.393 161.467 129.054V46.4103C161.467 44.0714 159.571 42.1754 157.232 42.1754Z" fill="#194E7E"/>
<path d="M158.19 70.2236H24.5402V120.558H158.19V70.2236Z" fill="white"/>
<path d="M95.8044 52.9594V62.38H93.6163V58.5194H89.3432V62.38H87.1627V52.9594H89.3432V56.6749H93.6163V52.9594H95.8044Z" fill="white"/>
<path d="M105.336 60.6311V62.38H98.0421V52.9594H105.16V54.7083H100.196V56.7551H104.568V58.4621H100.207V60.6425L105.336 60.6311Z" fill="white"/>
<path d="M107.073 52.9594H109.273V60.5967H113.997V62.3724H107.073V52.9594Z" fill="white"/>
<path d="M115.203 52.9594H117.384V60.5967H122.111V62.3724H115.203V52.9594Z" fill="white"/>
<path d="M122.581 57.6716C122.581 54.8687 124.761 52.7989 127.736 52.7989C130.711 52.7989 132.891 54.8572 132.891 57.6716C132.891 60.4859 130.7 62.5442 127.736 62.5442C124.773 62.5442 122.581 60.4707 122.581 57.6716ZM130.684 57.6716C130.671 57.0914 130.488 56.528 130.156 56.0518C129.825 55.5756 129.36 55.2079 128.82 54.9947C128.28 54.7815 127.69 54.7323 127.122 54.8532C126.555 54.9742 126.036 55.26 125.63 55.6748C125.224 56.0895 124.95 56.6148 124.841 57.1848C124.732 57.7548 124.794 58.3442 125.019 58.8791C125.244 59.414 125.622 59.8707 126.105 60.1918C126.589 60.513 127.156 60.6844 127.736 60.6845C128.132 60.695 128.525 60.6237 128.892 60.4751C129.259 60.3265 129.591 60.1039 129.867 59.821C130.144 59.5382 130.359 59.2014 130.5 58.8315C130.641 58.4617 130.703 58.0668 130.684 57.6716Z" fill="white"/>
<path d="M19.1864 88.6907L12.6946 100.636L13.2292 71.6327C13.3513 69.7902 13.9731 68.0159 15.0278 66.5003C15.4751 65.82 15.9991 65.1935 16.5897 64.633C17.3534 63.9877 18.373 63.1705 19.0718 62.8955C19.9386 62.5518 19.9654 61.3489 19.1596 61.1389C18.3539 60.9289 15.9405 61.8148 13.8402 63.9686C11.7399 66.1223 12.2134 61.4673 12.3586 59.768C12.5037 58.0687 12.6984 52.7989 12.2096 52.3559C11.4955 51.7029 10.644 52.3559 10.5409 54.0667C10.4378 55.7775 9.77713 60.8449 8.8721 60.7494C7.96707 60.6539 8.84155 52.0161 8.84155 52.0161C8.84155 52.0161 9.32271 50.1908 8.29548 50.0456C6.4396 49.7822 6.2143 59.0157 6.2143 59.8978C6.2143 60.5088 5.24054 60.4401 5.2749 59.7833C5.30927 59.1265 6.32122 51.176 4.43479 50.8934C2.98751 50.6757 4.17894 58.4887 3.05625 60.0582C1.93356 61.6277 2.75839 54.0247 1.36457 53.872C0.849051 53.8147 0.451908 53.8452 0.600837 58.252C0.684848 60.6234 1.74644 64.1671 1.55551 68.7419L1.50968 69.9257C0.413721 78.4834 -4.52383 123.38 12.4731 122.161C12.4731 122.161 25.3688 120.37 32.5365 96.9009L19.1864 88.6907Z" fill="#FFBE9D"/>
<path d="M4.64105 66.7753C4.64105 66.8173 4.92745 66.8517 5.35133 67.0731C5.92272 67.3678 6.36876 67.8586 6.60767 68.4555L6.74133 68.7954L6.89026 68.4631C7.10437 67.9891 7.40332 67.5581 7.77237 67.1915C8.48338 66.4682 9.3966 65.977 10.392 65.7824C11.1557 65.6259 11.6522 65.7137 11.6598 65.6526C11.2422 65.4986 10.7899 65.4642 10.3538 65.5533C9.28253 65.6922 8.28952 66.1887 7.53561 66.9624C7.14326 67.3594 6.82969 67.8272 6.61149 68.3409H6.89407C6.75715 68.0165 6.55745 67.7222 6.30646 67.4752C6.05547 67.2281 5.75812 67.0331 5.43152 66.9013C5.18821 66.7761 4.91124 66.7319 4.64105 66.7753Z" fill="#EB996E"/>
<path d="M96.7133 94.2698L103.934 107.872L110.529 120.558H95.6173L86.3761 101.514" fill="#FFBE9D"/>
<path d="M40.1548 120.558C41.5753 115.719 40.6436 114.956 39.1161 110.152L35.832 99.8412L28.6453 110.457L13.3667 98.1763L18.4341 86.747C27.9006 65.2936 43.2556 66.8173 43.2556 66.8173L62.8225 63.0826C62.8225 63.0826 75.3401 61.937 83.4434 69.2918C86.0859 71.6899 98.088 93.296 98.088 93.296L83.3403 103.629L79.724 97.4622L78.7235 105.844C77.9368 110.427 77.9865 116.258 79.724 120.558" fill="#455A64"/>
<path d="M38.4516 74.1186C38.4516 74.1721 35.2325 74.8823 31.2419 75.7034C27.2514 76.5244 23.9865 77.1468 23.9865 77.0934C23.9865 77.0399 27.2018 76.3296 31.1961 75.5086C35.1905 74.6876 38.4402 74.0575 38.4516 74.1186Z" fill="#FAFAFA"/>
<path d="M81.4767 67.94C81.4767 67.9973 78.3186 68.6274 74.3969 69.3491C70.4751 70.0708 67.2903 70.6169 67.2788 70.5596C67.2674 70.5023 70.4407 69.8761 74.3625 69.1543C78.2843 68.4326 81.4691 67.8865 81.4767 67.94Z" fill="#FAFAFA"/>
<path d="M87.5064 74.9243C87.5064 74.9778 82.5917 76.07 76.5047 77.395C70.4178 78.7201 65.4764 79.7244 65.4649 79.6862C65.4535 79.6481 70.3758 78.5406 76.4627 77.2156C82.5497 75.8905 87.4796 74.8823 87.5064 74.9243Z" fill="#FAFAFA"/>
<path d="M93.5361 85.6892L93.3299 85.7312L92.7266 85.8382L90.3933 86.22L81.8128 87.6253L53.4858 92.1695C42.4116 93.9223 32.3952 95.4841 25.1321 96.5763C21.5043 97.1262 18.564 97.5539 16.5286 97.8364C15.5128 97.9739 14.7224 98.077 14.1839 98.1343C13.9157 98.1928 13.6398 98.2082 13.3667 98.1801C13.6398 98.1758 13.9119 98.1477 14.1801 98.0961L16.5171 97.7601L25.113 96.4388L53.4552 91.971L81.7784 87.484L90.3704 86.1398L92.7075 85.7847L93.3185 85.6969L93.5361 85.6892Z" fill="#FAFAFA"/>
<path d="M79.1282 102.407C79.1282 102.461 70.0321 103.694 58.8014 105.157C47.5706 106.619 38.4592 107.761 38.4516 107.708C38.444 107.654 47.5439 106.425 58.7785 104.958C70.013 103.492 79.1053 102.354 79.1282 102.407Z" fill="#FAFAFA"/>
<path d="M77.3907 116.705C77.3907 116.762 69.2493 116.754 59.2138 116.705C49.1783 116.655 41.033 116.552 41.033 116.495C41.033 116.437 49.1706 116.445 59.2138 116.495C69.2569 116.544 77.3907 116.651 77.3907 116.705Z" fill="#FAFAFA"/>
<path d="M44.046 82.9551C43.9603 82.9831 43.8721 83.0023 43.7825 83.0123L43.0188 83.1384L40.2311 83.5813C37.875 83.9632 34.6253 84.5016 31.0663 85.1699C27.5073 85.8382 24.2614 86.5064 21.9282 87.0067L19.152 87.5986L18.3883 87.7551C18.301 87.779 18.2114 87.7931 18.121 87.7972C18.2034 87.7619 18.2891 87.7351 18.3768 87.717L19.152 87.5222C19.8012 87.3618 20.7406 87.1403 21.9015 86.8692C24.227 86.3308 27.45 85.6434 31.0319 84.9599C34.6139 84.2763 37.8674 83.7723 40.2273 83.4324C41.4111 83.2606 42.3658 83.1307 43.0302 83.0505L43.794 82.9627C43.8775 82.9518 43.9619 82.9492 44.046 82.9551Z" fill="#FAFAFA"/>
<path d="M60.8444 21.333C60.3747 26.9922 67.9586 31.0095 67.2827 36.6459C67.0956 38.2115 66.2822 39.9147 67.1109 41.2588C68.1037 42.8741 70.521 42.5343 72.2852 43.2331C74.458 44.0923 75.5693 46.7081 75.2409 49.0184C74.9125 51.3287 73.4155 53.3259 71.6551 54.8648C68.876 57.2946 65.402 58.787 61.7265 59.1303C60.0234 59.283 58.2439 59.1608 56.7241 58.3665C55.2042 57.5723 54.0014 56.041 53.9937 54.3302" fill="#263238"/>
<path d="M61.5928 66.3285C60.5847 61.4979 59.6109 56.3999 59.6109 56.3999C59.6109 56.3999 65.61 54.0476 65.1785 45.6656C64.7699 37.6693 59.7102 20.0804 59.7102 20.0804C49.9916 18.3277 39.9065 23.0017 35.0415 31.5365L43.8741 70.6169C44.8975 75.1535 49.6021 77.8724 54.4633 76.7535C59.3627 75.585 62.5513 70.93 61.5928 66.3285Z" fill="#FFBE9D"/>
<path d="M60.367 34.5189C60.4259 34.7895 60.3771 35.0724 60.2309 35.3076C60.0848 35.5428 59.8528 35.7119 59.5842 35.779C59.454 35.8179 59.3175 35.8302 59.1825 35.8154C59.0475 35.8005 58.9169 35.7587 58.7983 35.6925C58.6798 35.6263 58.5757 35.537 58.4923 35.4298C58.4088 35.3227 58.3477 35.1999 58.3125 35.0688C58.2519 34.8002 58.2975 34.5186 58.4399 34.283C58.5823 34.0474 58.8103 33.876 59.0763 33.8048C59.2079 33.7636 59.3465 33.7495 59.4836 33.7634C59.6208 33.7773 59.7538 33.8189 59.8744 33.8857C59.9951 33.9524 60.1009 34.043 60.1856 34.1518C60.2703 34.2606 60.332 34.3855 60.367 34.5189Z" fill="#263238"/>
<path d="M61.5393 33.4688C61.44 33.633 60.5273 33.2167 59.4085 33.4688C58.2896 33.7208 57.587 34.4425 57.438 34.3318C57.3655 34.2821 57.438 34.011 57.7473 33.675C58.156 33.2382 58.6894 32.9382 59.2748 32.8158C59.8559 32.6901 60.4618 32.753 61.0047 32.9952C61.4095 33.1747 61.5775 33.3962 61.5393 33.4688Z" fill="#263238"/>
<path d="M48.9377 37.1423C48.9984 37.4109 48.9528 37.6925 48.8104 37.9281C48.668 38.1637 48.44 38.3351 48.174 38.4063C48.0436 38.4445 47.9069 38.4563 47.7719 38.441C47.6369 38.4256 47.5064 38.3834 47.3879 38.3169C47.2694 38.2504 47.1654 38.1609 47.0821 38.0536C46.9987 37.9463 46.9376 37.8234 46.9024 37.6922C46.8418 37.4242 46.8876 37.1431 47.03 36.908C47.1724 36.673 47.4005 36.5024 47.6661 36.432C47.7962 36.3932 47.9328 36.3809 48.0678 36.3957C48.2028 36.4106 48.3334 36.4524 48.452 36.5186C48.5705 36.5848 48.6746 36.6741 48.758 36.7812C48.8415 36.8884 48.9026 37.0112 48.9377 37.1423Z" fill="#263238"/>
<path d="M50.0834 36.0807C49.9841 36.2411 49.0714 35.8249 47.9525 36.0807C46.8337 36.3366 46.1348 37.0545 45.9821 36.9437C45.9095 36.8979 45.9821 36.623 46.2914 36.2869C46.7017 35.8523 47.2344 35.5527 47.8189 35.4277C48.4013 35.3036 49.008 35.3664 49.5526 35.6072C49.9726 35.7867 50.1445 36.0043 50.0834 36.0807Z" fill="#263238"/>
<path d="M56.0329 43.3171C56.0138 43.2522 56.6859 42.9849 57.7818 42.603C58.0606 42.5114 58.3203 42.4006 58.3279 42.1944C58.2849 41.8934 58.1518 41.6125 57.946 41.3887L56.64 39.3915C54.8071 36.5389 53.4171 34.1714 53.5354 34.0988C53.6538 34.0263 55.2271 36.2793 57.0563 39.128L58.3317 41.1443C58.5817 41.4531 58.7167 41.8391 58.7136 42.2364C58.6934 42.3458 58.6486 42.4491 58.5824 42.5384C58.5162 42.6278 58.4305 42.7008 58.3317 42.7519C58.183 42.8288 58.0252 42.8866 57.862 42.9238C56.7546 43.2255 56.052 43.3782 56.0329 43.3171Z" fill="#263238"/>
<path d="M59.63 56.3999C55.8292 57.2616 51.864 57.0541 48.174 55.8004C48.174 55.8004 51.9926 60.8143 59.9469 58.336L59.63 56.3999Z" fill="#EB996E"/>
<path d="M56.1321 46.1124C55.8622 45.8897 55.5399 45.7396 55.1958 45.6761C54.8517 45.6126 54.4971 45.6379 54.1655 45.7496C53.9228 45.823 53.6977 45.9451 53.504 46.1087C53.3103 46.2722 53.152 46.4736 53.039 46.7005C52.9279 46.9181 52.8866 47.1646 52.9208 47.4065C52.955 47.6485 53.0629 47.874 53.2299 48.0523C53.4503 48.2116 53.7127 48.3023 53.9844 48.3132C54.2561 48.324 54.525 48.2545 54.7574 48.1134C55.2461 47.8175 55.6717 47.4282 56.0099 46.9678C56.1148 46.8563 56.1988 46.727 56.2581 46.5859C56.2868 46.5148 56.2934 46.4367 56.277 46.3618C56.2607 46.2868 56.2222 46.2186 56.1665 46.1658" fill="#194E7E"/>
<path d="M52.9015 44.7873C53.0848 44.7377 53.3445 45.952 54.5665 46.5974C55.7884 47.2427 57.0524 46.8303 57.0982 46.9792C57.1326 47.0518 56.8615 47.2771 56.3154 47.4069C55.6057 47.5687 54.8617 47.474 54.2151 47.1396C53.5948 46.8213 53.1234 46.2732 52.9015 45.6122C52.7564 45.1272 52.8175 44.7988 52.9015 44.7873Z" fill="#263238"/>
<path d="M39.9179 39.8269C39.0086 39.8249 38.1164 40.0747 37.3403 40.5486C36.568 41.0309 36.0186 41.8 35.8128 42.687C35.6517 43.5881 35.8402 44.5168 36.3398 45.2838C36.8388 46.0433 37.5017 46.6814 38.2797 47.1511C38.8131 47.527 39.4283 47.7705 40.0745 47.8614C40.3979 47.9047 40.727 47.867 41.0323 47.7517C41.3376 47.6364 41.6094 47.4471 41.8234 47.2007" fill="#FFBE9D"/>
<path d="M40.5366 45.1883C40.6435 45.1883 40.3762 45.8031 39.5399 45.7573C39.0872 45.7007 38.6754 45.4673 38.3943 45.1081C38.0621 44.7117 37.8117 44.2536 37.6573 43.7601C37.4792 43.2376 37.4941 42.6687 37.6993 42.1562C37.7843 41.9379 37.9184 41.7419 38.0912 41.5837C38.264 41.4254 38.4709 41.3091 38.6959 41.2436C39.5093 41.0526 39.8797 41.5643 39.7919 41.5987C39.7041 41.6331 39.3604 41.4536 38.8563 41.6942C38.3523 41.9348 38.0086 42.7099 38.3064 43.5615C38.6043 44.4131 39.1084 45.1768 39.6277 45.2799C40.147 45.383 40.4831 45.1272 40.5366 45.1883Z" fill="#EB996E"/>
<path d="M57.3388 18.2895C57.9286 19.4498 58.1268 20.77 57.9038 22.0524C57.6808 23.3348 57.0485 24.5106 56.1016 25.4037C54.1617 27.1488 51.3511 27.397 48.8461 28.1264C46.341 28.8558 43.6565 30.7002 43.771 33.3083C43.8398 34.8893 44.9625 36.4091 44.5577 37.9366C44.088 39.7275 41.8006 40.4913 41.1552 42.225C40.1204 45.0126 43.9085 47.5215 43.7405 50.4886C43.6412 52.249 42.1519 53.6848 41.9877 55.4529C41.7509 57.9503 44.2025 60.6043 42.8393 62.7084C41.7929 64.3275 39.3566 64.0946 37.5695 63.3919C35.7823 62.6893 33.8272 61.6888 32.0362 62.3914C30.9593 62.8115 30.1994 63.7738 29.2409 64.423C28.3657 65.0171 27.3338 65.3381 26.276 65.3455C25.2181 65.3529 24.1819 65.0463 23.2984 64.4645C22.4148 63.8828 21.7238 63.0519 21.3127 62.0772C20.9015 61.1025 20.7888 60.0278 20.9888 58.989C21.279 57.4615 22.2031 56.1517 22.9478 54.7884C23.6924 53.4252 24.2843 51.8328 23.8375 50.3473C23.49 49.2017 22.5964 48.3387 21.8862 47.384C21.1759 46.4293 20.6222 45.173 21.0804 44.077C21.8823 42.1486 24.9564 42.3166 26.0714 40.5524C27.5989 38.1275 24.0552 35.042 24.964 32.3231C25.9951 29.2453 31.4558 29.7952 32.4945 26.7173C32.8763 25.5984 32.4945 24.365 32.5976 23.1888C32.8687 20.5158 35.6907 18.7783 38.3523 18.3162C41.0139 17.8541 43.7939 18.1978 46.4059 17.5105C47.8341 17.1286 49.1706 16.4527 50.5759 15.983C51.9812 15.5133 53.5392 15.2803 54.9292 15.7959C56.3192 16.3114 57.4305 17.7663 57.1517 19.2327" fill="#263238"/>
<path d="M56.1359 24.0252C56.9088 25.3626 57.9776 26.5053 59.2604 27.3658C60.5431 28.2263 62.0059 28.7817 63.5365 28.9894C63.4869 26.9426 63.38 24.8805 62.8263 22.9139C62.2725 20.9473 61.2339 19.0418 59.63 17.7931C58.0262 16.5444 55.7579 16.025 53.8562 16.7697" fill="#263238"/>
<path d="M65.969 63.2774C66.6602 63.369 70.5247 86.0367 55.6891 88.5532C41.6478 90.9399 37.306 67.6498 37.306 67.6498C37.306 67.6498 46.7648 60.7112 65.969 63.2774Z" fill="#FFBE9D"/>
<path d="M57.4686 32.2429C57.5565 32.4072 58.3202 32.1628 59.271 32.0558C60.2219 31.9489 61.0162 32.0024 61.062 31.8229C61.1078 31.6434 60.2983 31.2768 59.1947 31.4067C58.0911 31.5365 57.3808 32.1131 57.4686 32.2429Z" fill="#263238"/>
<path d="M46.131 33.9995C46.1653 33.969 46.1615 33.9041 46.131 33.8009V33.9728C46.6793 33.6942 47.2587 33.4814 47.857 33.3389C48.911 33.1098 49.8045 33.3618 49.8771 33.19C49.9077 33.1098 49.7167 32.9303 49.3272 32.8081C48.8121 32.6327 48.2589 32.601 47.7272 32.7164C47.3753 32.7702 47.038 32.8951 46.736 33.0835C46.434 33.272 46.1736 33.52 45.9706 33.8124L45.9019 33.9499L45.9591 33.9804C46.0355 34.0224 46.1004 34.0224 46.131 33.9995Z" fill="#263238"/>
<path d="M39.7232 33.3389C38.8573 33.3495 37.9918 33.2946 37.1341 33.1747C36.2705 33.1218 35.4124 33.0005 34.568 32.8119C35.4339 32.8014 36.2994 32.8563 37.157 32.9761C38.0203 33.0321 38.8782 33.1534 39.7232 33.3389Z" fill="#194E7E"/>
<path d="M38.463 34.7862C37.82 34.9263 37.1586 34.9624 36.5041 34.8931C35.8472 34.8915 35.1948 34.7845 34.5718 34.5762C34.5718 34.5227 35.4463 34.6373 36.5155 34.6945C37.5847 34.7518 38.4592 34.7251 38.463 34.7862Z" fill="#194E7E"/>
<path d="M57.4649 22.9139C57.4495 22.9957 57.4239 23.0753 57.3885 23.1507C57.2952 23.3714 57.1662 23.5753 57.0066 23.754C56.3691 24.3765 55.5285 24.748 54.639 24.8003C54.0356 24.8678 53.426 24.8575 52.8252 24.7698C52.1798 24.6896 51.4963 24.5712 50.7784 24.5178C50.0326 24.433 49.2774 24.5151 48.5673 24.7583C47.8283 25.0773 47.1896 25.5907 46.7191 26.2438C46.1959 26.893 45.7568 27.588 45.2413 28.2028C44.9872 28.5066 44.7046 28.7853 44.3973 29.0353C44.0954 29.2685 43.7642 29.4611 43.4121 29.6081C42.7596 29.8507 42.084 30.026 41.3959 30.1312C40.8061 30.2215 40.225 30.3607 39.6584 30.5475C38.8373 30.8052 38.1348 31.3466 37.6765 32.0749C37.5349 32.3564 37.4481 32.6622 37.4206 32.9761C37.4097 32.8938 37.4097 32.8103 37.4206 32.7279C37.4448 32.4892 37.5107 32.2565 37.6154 32.0406C38.0573 31.2646 38.7697 30.6786 39.6164 30.3947C40.1884 30.1969 40.7759 30.0474 41.373 29.9479C42.0476 29.8398 42.7093 29.662 43.3472 29.4171C44.0361 29.118 44.6388 28.6505 45.1 28.0577C45.604 27.4581 46.0394 26.7593 46.5702 26.0987C47.0674 25.4257 47.736 24.8982 48.5062 24.5712C49.2427 24.322 50.0253 24.2398 50.7975 24.3306C52.26 24.4605 53.5393 24.808 54.6161 24.659C55.4837 24.6296 56.3129 24.2941 56.957 23.712C57.1667 23.474 57.338 23.2047 57.4649 22.9139Z" fill="#455A64"/>
<path d="M25.5979 64.7705C25.7132 64.7462 25.8267 64.7143 25.9378 64.675C26.2454 64.5338 26.4883 64.2814 26.6175 63.9686C26.8296 63.4742 26.8406 62.9166 26.648 62.4144C26.4647 61.8186 26.1096 61.1847 25.8385 60.4286C25.1417 58.6665 24.9525 56.7443 25.2924 54.8801C25.5246 53.7831 26.0025 52.753 26.69 51.8672C27.059 51.4023 27.4909 50.9911 27.9731 50.6452C28.4749 50.303 29.0159 50.0222 29.5846 49.8089C30.1408 49.6104 30.6579 49.3157 31.1121 48.9382C31.3136 48.7461 31.4707 48.5122 31.5722 48.253C31.6738 47.9937 31.7175 47.7154 31.7002 47.4375C31.6352 46.3263 31.0281 45.3067 31.0472 44.2069C31.0577 43.6726 31.1965 43.1488 31.4519 42.6794C31.689 42.2484 31.9818 41.8504 32.3226 41.4956C32.938 40.8764 33.5937 40.2985 34.2854 39.7658C35.5074 38.7576 36.2673 37.6617 36.4697 36.7986C36.5737 36.3515 36.5737 35.8864 36.4697 35.4392C36.4846 35.4666 36.495 35.4963 36.5002 35.527C36.5002 35.5843 36.5422 35.6721 36.5652 35.7867C36.6208 36.1293 36.6091 36.4795 36.5308 36.8177C36.4 37.3511 36.1651 37.8533 35.8396 38.2956C35.4145 38.8795 34.9195 39.4092 34.3656 39.8727C33.6856 40.4092 33.0402 40.9883 32.4333 41.6064C32.1054 41.9507 31.8231 42.3357 31.5932 42.752C31.3545 43.1938 31.2237 43.6858 31.2114 44.1878C31.2309 44.7189 31.33 45.2441 31.5054 45.7458C31.6975 46.2839 31.8256 46.8427 31.8873 47.4108C31.9075 47.7168 31.8601 48.0236 31.7486 48.3093C31.6371 48.595 31.4641 48.8528 31.2419 49.0642C30.7718 49.4589 30.2352 49.7666 29.6572 49.9731C29.1023 50.1942 28.5755 50.48 28.0877 50.8247C27.62 51.1598 27.201 51.5582 26.8428 52.0085C26.1713 52.8692 25.7027 53.8704 25.4719 54.9374C25.1329 56.7687 25.3046 58.658 25.9683 60.3981C26.228 61.1618 26.5755 61.7843 26.755 62.4029C26.8419 62.69 26.8831 62.9889 26.8772 63.2888C26.8655 63.5434 26.8018 63.793 26.69 64.022C26.5453 64.3451 26.2812 64.5996 25.953 64.7323C25.8393 64.7729 25.7176 64.786 25.5979 64.7705Z" fill="#455A64"/>
</svg>
